{"title":"The Wolverine 2013 720P TS XviD MP3 AVi MURDER","uid":8789576,"size":2169025205,"categoryP":"video","categoryS":"hd___movies","magnet":"?xt=urn:btih:634e4bcbad1e0d9497211f12024cbebde35ced60&amp;dn=The+Wolverine+2013+720P+TS+XviD+MP3+AVi+MURDER&amp;tr=udp%3A%2F%2Ftracker.openbittorrent.com%3A80&amp;tr=udp%3A%2F%2Fopen.demonii.com%3A1337&amp;tr=udp%3A%2F%2Ftracker.coppersurfer.tk%3A6969&amp;tr=udp%3A%2F%2Fexodus.desync.com%3A6969","seeders":15,"leechers":2,"uploader":"xxxlavalxxx","files":-1,"time":1375907994,"description":" &lt;a href=&quot;\nhttp://www.imdb.com/title/tt1430132/&quot; rel=&quot;nofollow&quot; target=&quot;_NEW&quot;&gt;\nhttp://www.imdb.com/title/tt1430132/&lt;/a&gt;\n\n\n\nSummoned to Japan by an old acquaintance, Wolverine becomes embroiled in a conflict that forces him to confront his own demons. \n\n\n\nDirector:\n James Mangold \n\nWriters:\n Mark Bomback (screenplay), Scott Frank (screenplay) \n\nStars:\n Hugh Jackman, Tao Okamoto, Rila Fukushima\n\nGenres:\n  Action |  Adventure |  Fantasy |  Sci-Fi \n\nCountry:\n USA  \n\n\n\nGeneral\n Complete name                            : The Wolverine 2013 720P TS XviD MP3 AVi MURDER.avi\n Format                                   : AVI\n Format/Info                              : Audio Video Interleave\n Format profile                           : OpenDML\n File size                                : 2.02 GiB\n Duration                                 : 1h 55mn\n Overall bit rate                         : 2 497 Kbps\n\n Video\n ID                                       : 0\n Format                                   : MPEG-4 Visual\n Format profile                           : Advanced Simple@L5\n Format settings, BVOP                    : 2\n Format settings, QPel                    : No\n Format settings, GMC                     : No warppoints\n Format settings, Matrix                  : Default (H.263)\n Muxing mode                              : Packed bitstream\n Codec ID                                 : XVID\n Codec ID/Hint                            : XviD\n Duration                                 : 1h 55mn\n Bit rate                                 : 2 161 Kbps\n Width                                    : 1 280 pixels\n Height                                   : 616 pixels\n Display aspect ratio                     : 2.078\n Frame rate                               : 29.970 fps\n Color space                              : YUV\n Chroma subsampling                       : 4:2:0\n Bit depth                                : 8 bits\n Scan type                                : Progressive\n Compression mode                         : Lossy\n Bits/(Pixel*Frame)                       : 0.091\n Stream size                              : 1.75 GiB (87%)\n Writing library                          : XviD 64\n\n Audio\n ID                                       : 1\n Format                                   : MPEG Audio\n Format version                           : Version 1\n Format profile                           : Layer 3\n Codec ID                                 : 55\n Codec ID/Hint                            : MP3\n Duration                                 : 1h 55mn\n Bit rate mode                            : Constant\n Bit rate                                 : 320 Kbps\n Channel(s)                               : 2 channels\n Sampling rate                            : 48.0 KHz\n Compression mode                         : Lossy\n Stream size                              : 265 MiB (13%)\n Alignment                                : Aligned on interleaves\n Interleave, duration                     : 33 ms (1.00 video frame)\n Writing library                          : LAMELAME_MAJOR_VERSI\n\n VIDEO SOURCE.....THE RUSSIAN,S\n AUDIO SOYRCE.......GOOD M8 THANKS...DUBBZ\n\n ENJOY....\n\n\n\n    \n &lt;a href=&quot;\nhttp://bayimg.com/oaOoDaaEc&quot; rel=&quot;nofollow&quot; target=&quot;_NEW&quot;&gt;\nhttp://bayimg.com/oaOoDaaEc&lt;/a&gt; &lt;a href=&quot;\nhttp://bayimg.com/oaoOEaAec&quot; rel=&quot;nofollow&quot; target=&quot;_NEW&quot;&gt;\nhttp://bayimg.com/oaoOEaAec&lt;/a&gt;","torrent":{"xt":"urn:btih:634e4bcbad1e0d9497211f12024cbebde35ced60","amp;dn":"The+Wolverine+2013+720P+TS+XviD+MP3+AVi+MURDER","amp;tr":["udp%3A%2F%2Ftracker.openbittorrent.com%3A80","udp%3A%2F%2Fopen.demonii.com%3A1337","udp%3A%2F%2Ftracker.coppersurfer.tk%3A6969","udp%3A%2F%2Fexodus.desync.com%3A6969"],"infoHash":"634e4bcbad1e0d9497211f12024cbebde35ced60","infoHashBuffer":{"type":"Buffer","data":[99,78,75,203,173,30,13,148,151,33,31,18,2,76,190,189,227,92,237,96]},"announce":[],"urlList":[]}}